<svg xmlns="http://www.w3.org/2000/svg" xmlns:xlink="http://www.w3.org/1999/xlink" width="238" height="110" viewBox="0 0 238 110">
  <defs>
    <clipPath id="clip-path">
      <rect id="Rectangle_2306" data-name="Rectangle 2306" width="238" height="110" transform="translate(0 5851.172)" fill="#fff" stroke="#707070" stroke-width="1"/>
    </clipPath>
  </defs>
  <g id="Mask_Group_52" data-name="Mask Group 52" transform="translate(0 -5851.172)" clip-path="url(#clip-path)">
    <g id="b" transform="translate(0 5857.09)">
      <g id="c">
        <g id="Group_5605" data-name="Group 5605">
          <path id="Path_734" data-name="Path 734" d="M63.595,43.452a90.135,90.135,0,0,1-17.761-2.068c-.3-.062-.543-.112-.739-.151l2.365-9.369A102.126,102.126,0,0,0,60.687,33.87c.25.012.607.035,1.016.057,1.373.079,3.255.191,3.858.191,6.329,0,7.229-.766,7.229-3.6s-1.773-3.206-8.551-4.195c-.315-.045-.977-.131-1.676-.221-1.007-.129-2.149-.275-2.561-.345-12.482-2.09-15.009-4.153-15.009-13.239C44.991,2.13,52.8,0,64.535,0A96.367,96.367,0,0,1,81.913,1.874l-2.187,9.3c-.35-.079-.687-.159-1.021-.238A59.255,59.255,0,0,0,66.848,9.245c-1.225-.077-2.38-.117-3.429-.117-1.235,0-2.142.052-2.868.1-3.721.258-4.388,1.245-4.418,3.22-.035,2.439,1,3.01,7.393,4.076.236.04,1.155.169,2.043.3.729.1,1.418.2,1.606.231,14.205,2.276,16.99,3.6,16.99,13.648,0,9.3-5.576,12.755-20.574,12.755Z" transform="translate(0)" fill="#fff"/>
          <path id="Path_735" data-name="Path 735" d="M89.827,42.78V.65h25.091c10.028,0,15.465,1.659,15.465,10.412,0,6.676-2.5,8.692-6.53,9.783v.027c5.214,1.054,7.641,4.252,7.641,10.068,0,8.744-4.046,11.843-15.462,11.843h-26.2Zm11.3-8.679h14.9c2.754,0,3.984-1.329,3.984-4.309s-1.267-4.425-3.984-4.425h-14.9Zm0-16.784h13.786c2.459,0,3.984-.664,3.984-3.967s-1.4-3.793-3.984-3.793H101.129Z" transform="translate(0)" fill="#fff"/>
          <path id="Path_736" data-name="Path 736" d="M38.992,33.461a9.57,9.57,0,0,1-8.7,9.527c-.769.069-1.629.089-2.261.089A27.842,27.842,0,0,1,.454,19.843c-.131-.808-.275-1.825-.347-2.531S0,15.715,0,14.9A27.081,27.081,0,0,1,.325,10.72a26.725,26.725,0,0,1,.6-2.834.036.036,0,0,1,.04-.032A.038.038,0,0,1,1,7.886c.022.109.05.218.077.325A6.791,6.791,0,0,0,4.75,12.577c.139.067.268.139.429.206l22.149,9.4s4.876,1.961,6.394,2.73a9.579,9.579,0,0,1,5.268,8.548Z" transform="translate(0)" fill="#fff"/>
          <path id="Path_737" data-name="Path 737" d="M13.784,8.823a.036.036,0,0,0,0-.01c-.082-.027-.159-.055-.238-.089l-.109-.047a4.184,4.184,0,0,1-2.5-3.835,4.109,4.109,0,0,1,2.343-3.758A4.153,4.153,0,0,1,15.058.657H40.489c.045,0,.069.015.072.064v.1a23.227,23.227,0,0,1-1.492,8.216A20,20,0,0,1,36.094,14.5a8.062,8.062,0,0,1-3.2,2.4.252.252,0,0,1-.1-.01L28.337,15,13.782,8.821Z" transform="translate(0)" fill="#86a4b2"/>
          <path id="Path_738" data-name="Path 738" d="M8.414,98.045H6.976L4.958,95.239h-2v2.806H1.728V90.176h3.2c2.055,0,3.039.573,3.039,2.526,0,1.49-.6,2.1-1.711,2.33l2.162,3.012ZM4.924,94.277c1.106,0,1.8-.161,1.8-1.554S5.98,91.146,4.9,91.146H2.963v3.131H4.921Z" transform="translate(0)" fill="#86a4b2"/>
          <path id="Path_739" data-name="Path 739" d="M13.167,90.176h5.367V91.19H14.4v2.246h3.206v1H14.4v2.613h4.133v.994H13.167V90.179Z" transform="translate(0)" fill="#86a4b2"/>
          <path id="Path_740" data-name="Path 740" d="M23.4,90.176H26.71c2.055,0,3.039.627,3.039,2.581s-1.021,2.591-3.064,2.591H24.63v2.7H23.4V90.179Zm3.315,4.21c1.034,0,1.8-.151,1.8-1.609s-.808-1.631-1.83-1.631H24.63v3.238h2.078Z" transform="translate(0)" fill="#86a4b2"/>
          <path id="Path_741" data-name="Path 741" d="M33.8,95.258V90.174H35.05v4.988c0,1.522.583,1.944,2.231,1.944s2.209-.345,2.209-1.921V90.176h1.2v5.062c0,2.33-1.153,2.913-3.434,2.913S33.8,97.624,33.8,95.258Zm3.706-7.576H39.3l-2.068,1.966h-.808l1.081-1.966Z" transform="translate(0)" fill="#86a4b2"/>
          <path id="Path_742" data-name="Path 742" d="M45.874,90.176h3.374c1.77,0,2.767.409,2.767,2.085a1.5,1.5,0,0,1-1.235,1.7,1.671,1.671,0,0,1,1.46,1.9c0,1.587-.937,2.192-2.767,2.192h-3.6V90.179Zm3.374,3.411c.821,0,1.532-.161,1.532-1.22s-.724-1.22-1.532-1.22H47.1v2.439h2.149Zm.226,3.508c.821,0,1.532-.238,1.532-1.3s-.712-1.307-1.532-1.307H47.1v2.6h2.375Z" transform="translate(0)" fill="#86a4b2"/>
          <path id="Path_743" data-name="Path 743" d="M57.157,90.176h1.235v6.877H62.9v.994H57.154V90.179Z" transform="translate(0)" fill="#86a4b2"/>
          <path id="Path_744" data-name="Path 744" d="M67.1,90.176h1.247v7.869H67.1Z" transform="translate(0)" fill="#86a4b2"/>
          <path id="Path_745" data-name="Path 745" d="M73.74,94.116c0-3.54,1.579-4.071,3.669-4.071a9.416,9.416,0,0,1,2.41.27l-.226.972a12.46,12.46,0,0,0-2.209-.216c-1.614,0-2.34.56-2.34,2.742v.55c0,2.137.749,2.8,2.363,2.8a10.228,10.228,0,0,0,2.2-.248l.226.972a9.177,9.177,0,0,1-2.447.27c-2.09,0-3.647-.5-3.647-4.036Z" transform="translate(0)" fill="#86a4b2"/>
          <path id="Path_746" data-name="Path 746" d="M85.543,98.045H84.321l3.337-7.923h1.116l3.337,7.923H90.828l-.7-1.7H86.244ZM88.19,91.7,86.646,95.39h3.077Z" transform="translate(0)" fill="#86a4b2"/>
          <path id="Path_747" data-name="Path 747" d="M103.564,90.176h3c2.34,0,3.682.659,3.682,3.939s-1.341,3.929-3.682,3.929h-3V90.176Zm2.992,6.919c1.545,0,2.387-.573,2.387-2.72v-.518c0-2.159-.843-2.71-2.387-2.71H104.8V97.1Z" transform="translate(0)" fill="#86a4b2"/>
          <path id="Path_748" data-name="Path 748" d="M114.754,94.116c0-3.367,1.639-4.071,3.8-4.071s3.776.679,3.776,4.048-1.639,4.071-3.8,4.071S114.754,97.485,114.754,94.116Zm6.272.27v-.55c0-2.246-.95-2.784-2.494-2.784s-2.469.518-2.469,2.764v.55c0,2.256.962,2.806,2.494,2.806s2.472-.528,2.472-2.784Z" transform="translate(0)" fill="#86a4b2"/>
          <path id="Path_749" data-name="Path 749" d="M130.792,98.045l-2.578-5.6v5.6h-1.128V90.176h1.307l2.945,6.369,2.945-6.369h1.307v7.869h-1.212v-5.6l-2.578,5.6H130.79Z" transform="translate(0)" fill="#86a4b2"/>
          <path id="Path_750" data-name="Path 750" d="M140.892,90.176h1.247v7.869h-1.247Z" transform="translate(0)" fill="#86a4b2"/>
          <path id="Path_751" data-name="Path 751" d="M147.412,90.176h1.212l4.346,5.851V90.176h1.188v7.869h-1.081L148.6,92.033v6.012h-1.187V90.176Z" transform="translate(0)" fill="#86a4b2"/>
          <path id="Path_752" data-name="Path 752" d="M159.637,90.176h1.247v7.869h-1.247Z" transform="translate(0)" fill="#86a4b2"/>
          <path id="Path_753" data-name="Path 753" d="M165.867,94.116c0-3.54,1.579-4.071,3.669-4.071a9.458,9.458,0,0,1,2.412.27l-.226.972a12.46,12.46,0,0,0-2.209-.216c-1.614,0-2.34.56-2.34,2.742v.55c0,2.137.749,2.8,2.363,2.8a10.228,10.228,0,0,0,2.2-.248l.226.972a9.177,9.177,0,0,1-2.447.27c-2.09,0-3.647-.5-3.647-4.036Z" transform="translate(0)" fill="#86a4b2"/>
          <path id="Path_754" data-name="Path 754" d="M177.365,98.045h-1.222l3.337-7.923H180.6l3.337,7.923h-1.282l-.7-1.7h-3.882l-.7,1.7Zm2.648-6.347-1.544,3.691h3.077Z" transform="translate(0)" fill="#86a4b2"/>
          <path id="Path_755" data-name="Path 755" d="M188.6,90.176h1.212l4.346,5.851V90.176h1.188v7.869h-1.081l-4.477-6.012v6.012H188.6V90.176Z" transform="translate(0)" fill="#86a4b2"/>
          <path id="Path_756" data-name="Path 756" d="M201.239,98.045h-1.222l3.337-7.923h1.116l3.337,7.923h-1.282l-.7-1.7h-3.882l-.7,1.7Zm2.648-6.347-1.544,3.691h3.077Z" transform="translate(0)" fill="#86a4b2"/>
          <path id="Path_757" data-name="Path 757" d="M48.569,65.467v-11.1H58.912l-.4,2.293H51.479v2.112h6.453l-.263,2.288c-.151,0-.347,0-.372.007H51.479v2.107h7.428l-.513,2.291-.994,0H48.571Z" transform="translate(0)" fill="#fff"/>
          <rect id="Rectangle_2307" data-name="Rectangle 2307" width="2.911" height="11.104" transform="translate(218.035 54.363)" fill="#fff"/>
          <rect id="Rectangle_2308" data-name="Rectangle 2308" width="2.913" height="9.569" transform="translate(109.68 55.897)" fill="#fff"/>
          <rect id="Rectangle_2309" data-name="Rectangle 2309" width="11.253" height="2.65" transform="translate(105.537 54.499)" fill="#fff"/>
          <path id="Path_758" data-name="Path 758" d="M208.025,65.692c-3.677,0-4.981-1.842-4.981-3.419V57.618c0-1.577,1.3-3.421,4.981-3.421a25.616,25.616,0,0,1,5.035.434l-.444,2.053c-.875-.072-2.606-.144-4.591-.144-1.314,0-2.266.7-2.266,1.666v3.476c0,.964.952,1.666,2.266,1.666a42.8,42.8,0,0,0,5-.218l-.533,2.288A35.62,35.62,0,0,1,208.025,65.692Z" transform="translate(0)" fill="#fff"/>
          <path id="Path_759" data-name="Path 759" d="M121.148,65.467v-11.1h10.343l-.4,2.293h-7.036v2.112h6.453l-.263,2.288c-.151,0-.347,0-.372.007h-5.819v2.107h7.425l-.513,2.291-.994,0h-8.828Z" transform="translate(0)" fill="#fff"/>
          <path id="Path_760" data-name="Path 760" d="M171.041,65.467v-11.1h10.343l-.4,2.293h-7.036v2.112H180.4l-.263,2.288c-.151,0-.347,0-.372.007h-5.819v2.107h7.428l-.513,2.291-.994,0h-8.828Z" transform="translate(0)" fill="#fff"/>
          <path id="Path_761" data-name="Path 761" d="M6.389,65.6a30.1,30.1,0,0,1-4.745-.379l.5-2.318c.5.087,2.283.275,3.528.342.117.007.293.02.474.035.27.022.548.045.677.045,1.567,0,1.991-.124,1.991-1,0-.831-.355-.888-2.33-1.2l-.3-.047c-.248-.037-.55-.082-.672-.1-3.3-.55-3.924-1.1-3.924-3.483s1.465-3.24,4.9-3.24a31.189,31.189,0,0,1,4.693.389l-.5,2.343h0a36.986,36.986,0,0,0-3.815-.337c-.059,0-.2-.01-.34-.02-.178-.012-.367-.025-.439-.025-1.217,0-1.567.2-1.567.91,0,.833.32.88,2.1,1.153.057.01.206.027.357.047s.31.037.364.047c3.664.585,4.45.954,4.45,3.538,0,2.407-1.46,3.3-5.392,3.3Z" transform="translate(0)" fill="#fff"/>
          <path id="Path_762" data-name="Path 762" d="M21.752,65.6c-3.421,0-5.7-.679-5.7-4V54.4h2.906v7.026c0,1.468,1.349,1.671,2.809,1.671s2.814-.126,2.814-1.641V54.4h2.767v7.165c0,2.863-1.621,4.031-5.6,4.031Z" transform="translate(0)" fill="#fff"/>
          <path id="Path_763" data-name="Path 763" d="M32.655,65.447V54.4h7.237c2.965,0,4.376.6,4.376,4.046s-1.478,4.093-4.391,4.093H35.531v2.9Zm2.876-5.112h4.363c.751,0,1.485-.144,1.485-1.854,0-1.837-.9-1.837-1.5-1.837H35.534v3.691Z" transform="translate(0)" fill="#fff"/>
          <path id="Path_764" data-name="Path 764" d="M72.562,65.447,70.541,62.39H66.8v3.057H63.927V54.4h7.361c3.087,0,4.376.545,4.376,3.922,0,2.182-.575,3.31-1.921,3.771l-.092.032,2.189,3.317h-3.28ZM66.8,60.181h4.485c.627,0,1.485,0,1.485-1.825,0-1.582-.659-1.716-1.336-1.716H66.8v3.54Z" transform="translate(0)" fill="#fff"/>
          <path id="Path_765" data-name="Path 765" d="M98.789,65.447l-6.2-7.269v7.269H89.827V54.4h2.945l5.714,6.773V54.4h2.767V65.447Z" transform="translate(0)" fill="#fff"/>
          <rect id="Rectangle_2310" data-name="Rectangle 2310" width="2.906" height="11.042" transform="translate(81.046 54.405)" fill="#fff"/>
          <path id="Path_766" data-name="Path 766" d="M145.87,65.447l-6.2-7.269v7.269h-2.767V54.4h2.945l5.714,6.773V54.4h2.767V65.447Z" transform="translate(0)" fill="#fff"/>
          <path id="Path_767" data-name="Path 767" d="M195.478,65.447l-6.2-7.269v7.269h-2.767V54.4h2.945l5.714,6.773V54.4h2.767V65.447Z" transform="translate(0)" fill="#fff"/>
          <path id="Path_768" data-name="Path 768" d="M234.812,65.447l-.7-1.552h-5.132l-.7,1.552h-3.03L230.4,54.328h2.464L238,65.447h-3.183Zm-4.9-3.743h3.282l-1.631-3.694L229.911,61.7Z" transform="translate(0)" fill="#fff"/>
          <path id="Path_769" data-name="Path 769" d="M154.388,65.447V54.4h6.354c3.808,0,5.4.769,5.4,5.521s-1.592,5.521-5.4,5.521Zm2.891-2.147h3.448c2.028,0,2.385-.969,2.385-3.01v-.729c0-2.028-.345-2.933-2.385-2.933h-3.448Z" transform="translate(0)" fill="#fff"/>
          <path id="Path_770" data-name="Path 770" d="M17.8,82.91v-11.1H28.138l-.4,2.293H20.706v2.112h6.453L26.9,78.5c-.151,0-.347,0-.372.007H20.706v2.107h7.428L27.62,82.9l-.994,0H17.8Z" transform="translate(0)" fill="#fff"/>
          <path id="Path_771" data-name="Path 771" d="M95.244,83.133c-3.677,0-4.981-1.842-4.981-3.419V75.058c0-1.577,1.3-3.421,4.981-3.421a25.617,25.617,0,0,1,5.035.434l-.444,2.053c-.875-.072-2.606-.144-4.591-.144-1.314,0-2.266.7-2.266,1.666v3.476c0,.964.952,1.666,2.266,1.666a42.8,42.8,0,0,0,5-.218l-.533,2.288A35.619,35.619,0,0,1,95.244,83.133Z" transform="translate(0)" fill="#fff"/>
          <path id="Path_772" data-name="Path 772" d="M66.072,82.89l-.7-1.552H60.243l-.7,1.552h-3.03l5.139-11.119H64.12L69.26,82.89H66.077Zm-4.9-3.744H64.45l-1.631-3.694L61.17,79.147Z" transform="translate(0)" fill="#fff"/>
          <path id="Path_773" data-name="Path 773" d="M82.669,82.89l-6.2-7.269V82.89H73.707V71.848h2.945l5.714,6.773V71.848h2.767V82.89Z" transform="translate(0)" fill="#fff"/>
          <path id="Path_774" data-name="Path 774" d="M110.089,83.074c-3.82,0-6.034-.935-6.034-5.7s2.224-5.7,6.069-5.7,6.034.927,6.034,5.675-2.224,5.734-6.066,5.734Zm0-9.032c-2.182,0-2.846.667-2.846,2.856v.883c0,2.226.726,2.977,2.883,2.977s2.846-.716,2.846-2.948v-.883c0-2.187-.7-2.888-2.883-2.888Z" transform="translate(0)" fill="#fff"/>
          <path id="Path_775" data-name="Path 775" d="M125.995,83.041a30.069,30.069,0,0,1-4.745-.379l.5-2.318c.5.087,2.283.275,3.528.342.117.007.293.02.476.035.27.022.548.045.674.045,1.567,0,1.991-.124,1.991-1,0-.831-.355-.888-2.33-1.2l-.3-.047c-.248-.037-.548-.082-.672-.1-3.3-.55-3.924-1.1-3.924-3.483s1.465-3.24,4.9-3.24a31.189,31.189,0,0,1,4.693.389l-.5,2.343h0a36.987,36.987,0,0,0-3.815-.337c-.059,0-.2-.01-.34-.02-.178-.012-.367-.025-.439-.025-1.217,0-1.567.2-1.567.91,0,.833.32.88,2.1,1.153.057.01.206.027.355.047l.367.047c3.664.585,4.45.954,4.45,3.538,0,2.407-1.46,3.3-5.392,3.3Z" transform="translate(0)" fill="#fff"/>
          <path id="Path_776" data-name="Path 776" d="M42.21,82.89V71.848h6.57c2.615,0,4.034.429,4.034,2.692,0,1.728-.645,2.249-1.681,2.529l0,.144a2.281,2.281,0,0,1,1.971,2.6c0,2.268-1.056,3.074-4.034,3.074H42.21Zm2.858-2.162h4.006c.771,0,1.128-.387,1.128-1.215s-.369-1.245-1.128-1.245H45.068v2.459Zm0-4.455H48.78c.677,0,1.128-.191,1.128-1.123s-.414-1.078-1.128-1.078H45.068Z" transform="translate(0)" fill="#fff"/>
          <path id="Path_777" data-name="Path 777" d="M1.579,82.89V71.848H7.931c3.808,0,5.4.769,5.4,5.521s-1.592,5.521-5.4,5.521H1.579ZM4.47,80.743H7.918c2.028,0,2.385-.969,2.385-3.01V77c0-2.028-.345-2.933-2.385-2.933H4.47Z" transform="translate(0)" fill="#fff"/>
        </g>
      </g>
    </g>
  </g>
</svg>
