<svg xmlns="http://www.w3.org/2000/svg" version="1.1" xmlns:xlink="http://www.w3.org/1999/xlink" xmlns:svgjs="http://svgjs.com/svgjs" width="1080" height="1080">
    <path stroke="null" id="Top" d="m375.98788,210.745a0.51831,0.51831 0 0 0 0,0c-2.00844,-0.71267 -4.01689,-1.42535 -5.96054,-2.2676l-2.72112,-1.16619a105.60521,105.60521 0 0 1 -4.08167,-191.57952a104.11508,104.11508 0 0 1 44.9632,-11.01404l641.85942,0c1.16619,0 1.74929,0.38873 1.81408,1.61971l0,2.46196a585.42866,585.42866 0 0 1 -37.70689,207.32312c-19.04781,50.53501 -44.44489,100.48692 -75.08984,137.86987c-15.61402,19.43654 -54.74626,55.00542 -80.79123,60.64201a6.47885,6.47885 0 0 1 -2.59154,0l-112.34322,-47.68432l-367.35065,-156.20501l0,0.00001z" class="cls-2"/>
    <path stroke="null" id="Bottom" d="m1012.2107,832.58478a241.46665,241.46665 0 0 1 -219.56814,240.43003c-19.43654,1.74929 -41.07589,2.2676 -57.07865,2.2676c-351.08875,0 -642.63688,-254.22998 -695.9578,-586.40049c-3.30421,-20.40837 -6.93237,-46.06461 -8.81123,-63.88144s-2.65633,-40.29843 -2.65633,-60.77159a683.32405,683.32405 0 0 1 23.38864,-177.13169c0,-0.64788 0.5831,-0.84225 0.97183,-0.84225a0.97183,0.97183 0 0 1 0.97183,0.84225c0.5831,2.7859 1.23098,5.50702 1.94365,8.22814a171.17115,171.17115 0 0 0 92.64752,110.14041c3.49858,1.74929 6.47885,3.49858 10.81968,5.24787l558.99496,237.2554s123.0981,49.49839 161.38809,68.87015a241.92017,241.92017 0 0 1 132.94595,215.74562l0,-0.00001z" class="cls-1"/>
    <style>
    #Top {
        fill: #4c6978;
    }
    #Bottom {
        fill: #0d3048;
    }
    @media (prefers-color-scheme: dark) {
        #Top {
            fill: #86a4b3;
        }
        #Bottom {
            fill: #ffffff;
        }
    }
    </style>
</svg>